<svg width="21" height="24" viewBox="0 0 21 24" fill="none" xmlns="http://www.w3.org/2000/svg">
<path d="M19.7808 18.424C19.433 19.2275 19.0213 19.9672 18.5442 20.6473C17.894 21.5743 17.3616 22.216 16.9513 22.5724C16.3153 23.1573 15.6338 23.4569 14.9041 23.4739C14.3802 23.4739 13.7485 23.3248 13.013 23.0224C12.2752 22.7214 11.5972 22.5724 10.9772 22.5724C10.327 22.5724 9.62959 22.7214 8.88368 23.0224C8.13662 23.3248 7.53481 23.4824 7.07468 23.498C6.37491 23.5278 5.6774 23.2198 4.98118 22.5724C4.53681 22.1848 3.98099 21.5204 3.31515 20.5791C2.60075 19.574 2.01342 18.4084 1.55329 17.0795C1.06051 15.6442 0.813477 14.2543 0.813477 12.9087C0.813477 11.3673 1.14654 10.0379 1.81366 8.92386C2.33796 8.02902 3.03546 7.32314 3.90844 6.80495C4.78142 6.28675 5.72468 6.02269 6.74048 6.00579C7.2963 6.00579 8.02518 6.17772 8.93095 6.51561C9.83417 6.85464 10.4141 7.02656 10.6684 7.02656C10.8585 7.02656 11.5028 6.82553 12.5949 6.42475C13.6278 6.05307 14.4995 5.89917 15.2136 5.95979C17.1487 6.11596 18.6024 6.87877 19.5693 8.25305C17.8386 9.30165 16.9826 10.7703 16.9996 12.6544C17.0152 14.122 17.5476 15.3432 18.5939 16.3129C19.0681 16.7629 19.5977 17.1108 20.1868 17.3578C20.0591 17.7283 19.9242 18.0833 19.7808 18.424ZM15.3428 0.960146C15.3428 2.11041 14.9226 3.1844 14.0849 4.17848C13.0741 5.36025 11.8514 6.04313 10.5256 5.93537C10.5087 5.79738 10.4989 5.65214 10.4989 5.49952C10.4989 4.39527 10.9796 3.21351 11.8333 2.24725C12.2595 1.75802 12.8015 1.35123 13.4588 1.02673C14.1147 0.707068 14.7352 0.530288 15.3187 0.500015C15.3357 0.653787 15.3428 0.807569 15.3428 0.960131V0.960146Z" fill="white"/>
</svg>
