<svg width="29" height="30" viewBox="0 0 29 30" fill="none" xmlns="http://www.w3.org/2000/svg">
<g filter="url(#filter0_d_142_1497)">
<circle cx="14.1426" cy="14.1421" r="10" transform="rotate(-135 14.1426 14.1421)" fill="white"/>
</g>
<path fill-rule="evenodd" clip-rule="evenodd" d="M17.1734 17.1725C17.034 17.312 16.8078 17.312 16.6684 17.1725L11.1125 11.6167C10.973 11.4772 10.973 11.2511 11.1125 11.1116C11.252 10.9721 11.4781 10.9721 11.6176 11.1116L17.1734 16.6674C17.3129 16.8069 17.3129 17.033 17.1734 17.1725Z" fill="#AAAAAA" stroke="#AAAAAA" stroke-width="0.25" stroke-linecap="round" stroke-linejoin="round"/>
<path fill-rule="evenodd" clip-rule="evenodd" d="M11.1117 17.1725C10.9722 17.033 10.9722 16.8069 11.1117 16.6674L16.6676 11.1116C16.807 10.9721 17.0332 10.9721 17.1726 11.1116C17.3121 11.2511 17.3121 11.4772 17.1726 11.6167L11.6168 17.1725C11.4773 17.312 11.2512 17.312 11.1117 17.1725Z" fill="#AAAAAA" stroke="#AAAAAA" stroke-width="0.25" stroke-linecap="round" stroke-linejoin="round"/>
<defs>
<filter id="filter0_d_142_1497" x="0.142578" y="1.14209" width="28" height="28" filterUnits="userSpaceOnUse" color-interpolation-filters="sRGB">
<feFlood flood-opacity="0" result="BackgroundImageFix"/>
<feColorMatrix in="SourceAlpha" type="matrix" values="0 0 0 0 0 0 0 0 0 0 0 0 0 0 0 0 0 0 127 0" result="hardAlpha"/>
<feOffset dy="1"/>
<feGaussianBlur stdDeviation="2"/>
<feColorMatrix type="matrix" values="0 0 0 0 0.478431 0 0 0 0 0.478431 0 0 0 0 0.482353 0 0 0 0.18 0"/>
<feBlend mode="normal" in2="BackgroundImageFix" result="effect1_dropShadow_142_1497"/>
<feBlend mode="normal" in="SourceGraphic" in2="effect1_dropShadow_142_1497" result="shape"/>
</filter>
</defs>
</svg>
