<svg width="40" height="40" viewBox="0 0 40 40" fill="none" xmlns="http://www.w3.org/2000/svg">
<g filter="url(#filter0_d_148_1536)">
<circle cx="20" cy="19" r="16" fill="white"/>
</g>
<g clip-path="url(#clip0_148_1536)">
<path fill-rule="evenodd" clip-rule="evenodd" d="M18.7245 12.0625C18.8315 11.8218 19.0702 11.6666 19.3337 11.6666C20.0409 11.6666 20.7192 11.9476 21.2193 12.4477C21.7194 12.9478 22.0003 13.626 22.0003 14.3333V16.3333H25.1036C25.3921 16.3306 25.6778 16.3904 25.941 16.5086C26.2055 16.6273 26.4411 16.8021 26.6313 17.0208C26.8215 17.2396 26.9619 17.4972 27.0428 17.7756C27.1236 18.054 27.143 18.3467 27.0994 18.6333L26.1795 24.6332C26.1794 24.6334 26.1795 24.6331 26.1795 24.6332C26.107 25.1099 25.8648 25.545 25.4974 25.8573C25.1309 26.1688 24.6644 26.3377 24.1835 26.3333H14.667C14.1366 26.3333 13.6279 26.1226 13.2528 25.7475C12.8777 25.3724 12.667 24.8637 12.667 24.3333V19.6666C12.667 19.1362 12.8777 18.6275 13.2528 18.2524C13.6279 17.8773 14.1366 17.6666 14.667 17.6666H16.2337L18.7245 12.0625ZM17.3337 18.4748L19.7389 13.063C19.9398 13.1271 20.1246 13.2386 20.2765 13.3905C20.5265 13.6405 20.667 13.9797 20.667 14.3333V17C20.667 17.3681 20.9655 17.6666 21.3337 17.6666H25.107L25.1145 17.6666C25.2112 17.6655 25.3069 17.6854 25.3951 17.725C25.4832 17.7646 25.5617 17.8228 25.6252 17.8958C25.6886 17.9687 25.7354 18.0545 25.7623 18.1473C25.7892 18.2401 25.7957 18.3375 25.7812 18.433C25.7813 18.4329 25.7812 18.4331 25.7812 18.433L24.8612 24.4333C24.8371 24.5923 24.7563 24.7372 24.6338 24.8413C24.5113 24.9455 24.3553 25.0018 24.1945 25L17.3337 25V18.4748ZM16.0003 25V19H14.667C14.4902 19 14.3206 19.0702 14.1956 19.1952C14.0706 19.3202 14.0003 19.4898 14.0003 19.6666V24.3333C14.0003 24.5101 14.0706 24.6797 14.1956 24.8047C14.3206 24.9297 14.4902 25 14.667 25H16.0003Z" fill="black"/>
</g>
<defs>
<filter id="filter0_d_148_1536" x="0" y="0" width="40" height="40" filterUnits="userSpaceOnUse" color-interpolation-filters="sRGB">
<feFlood flood-opacity="0" result="BackgroundImageFix"/>
<feColorMatrix in="SourceAlpha" type="matrix" values="0 0 0 0 0 0 0 0 0 0 0 0 0 0 0 0 0 0 127 0" result="hardAlpha"/>
<feOffset dy="1"/>
<feGaussianBlur stdDeviation="2"/>
<feComposite in2="hardAlpha" operator="out"/>
<feColorMatrix type="matrix" values="0 0 0 0 0.478431 0 0 0 0 0.478431 0 0 0 0 0.482353 0 0 0 0.18 0"/>
<feBlend mode="normal" in2="BackgroundImageFix" result="effect1_dropShadow_148_1536"/>
<feBlend mode="normal" in="SourceGraphic" in2="effect1_dropShadow_148_1536" result="shape"/>
</filter>
<clipPath id="clip0_148_1536">
<rect width="16" height="16" fill="white" transform="translate(12 11)"/>
</clipPath>
</defs>
</svg>
