<svg width="64" height="64" viewBox="0 0 64 64" fill="none" xmlns="http://www.w3.org/2000/svg">
<path fill-rule="evenodd" clip-rule="evenodd" d="M43 10C43 8.89543 43.8954 8 45 8H52C53.0609 8 54.0783 8.42143 54.8284 9.17157C55.5786 9.92172 56 10.9391 56 12V19C56 20.1046 55.1046 21 54 21C52.8954 21 52 20.1046 52 19L52 12L45 12C43.8954 12 43 11.1046 43 10Z" fill="#D9D9D9"/>
<path fill-rule="evenodd" clip-rule="evenodd" d="M54 43C55.1046 43 56 43.8954 56 45V52C56 53.0609 55.5786 54.0783 54.8284 54.8284C54.0783 55.5786 53.0609 56 52 56H45C43.8954 56 43 55.1046 43 54C43 52.8954 43.8954 52 45 52H52V45C52 43.8954 52.8954 43 54 43Z" fill="#D9D9D9"/>
<path fill-rule="evenodd" clip-rule="evenodd" d="M10 43C11.1046 43 12 43.8954 12 45V52H19C20.1046 52 21 52.8954 21 54C21 55.1046 20.1046 56 19 56H12C10.9391 56 9.92172 55.5786 9.17157 54.8284C8.42143 54.0783 8 53.0609 8 52V45C8 43.8954 8.89543 43 10 43Z" fill="#D9D9D9"/>
<path fill-rule="evenodd" clip-rule="evenodd" d="M9.17157 9.17157C9.92172 8.42143 10.9391 8 12 8H19C20.1046 8 21 8.89543 21 10C21 11.1046 20.1046 12 19 12L12 12L12 19C12 20.1046 11.1046 21 10 21C8.89543 21 8 20.1046 8 19V12C8 10.9391 8.42143 9.92172 9.17157 9.17157Z" fill="#D9D9D9"/>
<path fill-rule="evenodd" clip-rule="evenodd" d="M32 22C28.6863 22 26 24.6863 26 28C26 31.3137 28.6863 34 32 34C35.3137 34 38 31.3137 38 28C38 24.6863 35.3137 22 32 22ZM22 28C22 22.4772 26.4772 18 32 18C37.5228 18 42 22.4772 42 28C42 33.5228 37.5228 38 32 38C26.4772 38 22 33.5228 22 28Z" fill="#D9D9D9"/>
<path fill-rule="evenodd" clip-rule="evenodd" d="M32 38.0124C29.6338 38.0124 27.3122 38.657 25.2847 39.8769C23.2572 41.0969 21.6004 42.8461 20.4921 44.9367C19.9747 45.9127 18.7642 46.2844 17.7882 45.767C16.8123 45.2497 16.4406 44.0391 16.958 43.0632C18.4066 40.3306 20.5723 38.0441 23.2225 36.4495C25.8726 34.8549 28.9071 34.0124 32 34.0124C35.0929 34.0124 38.1274 34.8549 40.7776 36.4495C43.4277 38.0441 45.5934 40.3306 47.0421 43.0632C47.5594 44.0391 47.1877 45.2497 46.2118 45.767C45.2359 46.2844 44.0253 45.9127 43.508 44.9367C42.3997 42.8461 40.7428 41.0969 38.7153 39.8769C36.6878 38.657 34.3662 38.0124 32 38.0124Z" fill="#D9D9D9"/>
</svg>
