<svg width="28" height="28" viewBox="0 0 28 28" fill="none" xmlns="http://www.w3.org/2000/svg">
<path fill-rule="evenodd" clip-rule="evenodd" d="M5.20854 18.0419C6.30251 16.948 7.78624 16.3334 9.33333 16.3334H18.6667C20.2138 16.3334 21.6975 16.948 22.7915 18.0419C23.8854 19.1359 24.5 20.6196 24.5 22.1667V24.5C24.5 25.1444 23.9777 25.6667 23.3333 25.6667C22.689 25.6667 22.1667 25.1444 22.1667 24.5V22.1667C22.1667 21.2384 21.7979 20.3482 21.1415 19.6918C20.4852 19.0355 19.5949 18.6667 18.6667 18.6667H9.33333C8.40508 18.6667 7.51484 19.0355 6.85846 19.6918C6.20208 20.3482 5.83333 21.2384 5.83333 22.1667V24.5C5.83333 25.1444 5.311 25.6667 4.66667 25.6667C4.02233 25.6667 3.5 25.1444 3.5 24.5V22.1667C3.5 20.6196 4.11458 19.1359 5.20854 18.0419Z" fill="black" stroke="white" stroke-width="0.5" stroke-linecap="round" stroke-linejoin="round"/>
<path fill-rule="evenodd" clip-rule="evenodd" d="M14.0003 4.66671C12.0673 4.66671 10.5003 6.23371 10.5003 8.16671C10.5003 10.0997 12.0673 11.6667 14.0003 11.6667C15.9333 11.6667 17.5003 10.0997 17.5003 8.16671C17.5003 6.23371 15.9333 4.66671 14.0003 4.66671ZM8.16699 8.16671C8.16699 4.94505 10.7787 2.33337 14.0003 2.33337C17.222 2.33337 19.8337 4.94505 19.8337 8.16671C19.8337 11.3884 17.222 14 14.0003 14C10.7787 14 8.16699 11.3884 8.16699 8.16671Z" fill="black" stroke="white" stroke-width="0.5" stroke-linecap="round" stroke-linejoin="round"/>
</svg>
