<svg width="32" height="32" viewBox="0 0 32 32" fill="none" xmlns="http://www.w3.org/2000/svg">
<g filter="url(#filter0_d_142_1358)">
<circle cx="16" cy="12" r="12" fill="white"/>
</g>
<g clip-path="url(#clip0_142_1358)">
<path d="M12.9588 6.01054C12.7286 6.24079 12.7285 6.61418 12.9589 6.84447L18.4387 12.3242L12.9588 17.8041C12.7286 18.0344 12.7285 18.4078 12.9589 18.6381C13.1892 18.8684 13.5625 18.8684 13.7928 18.6381L19.6896 12.7411C19.8002 12.6305 19.8623 12.4806 19.8623 12.3242C19.8623 12.1678 19.8001 12.0178 19.6896 11.9072L13.7928 6.01058C13.5625 5.78025 13.1891 5.78025 12.9588 6.01054Z" fill="#48C5B5"/>
</g>
<defs>
<filter id="filter0_d_142_1358" x="0" y="0" width="32" height="32" filterUnits="userSpaceOnUse" color-interpolation-filters="sRGB">
<feFlood flood-opacity="0" result="BackgroundImageFix"/>
<feColorMatrix in="SourceAlpha" type="matrix" values="0 0 0 0 0 0 0 0 0 0 0 0 0 0 0 0 0 0 127 0" result="hardAlpha"/>
<feOffset dy="4"/>
<feGaussianBlur stdDeviation="2"/>
<feComposite in2="hardAlpha" operator="out"/>
<feColorMatrix type="matrix" values="0 0 0 0 0 0 0 0 0 0 0 0 0 0 0 0 0 0 0.25 0"/>
<feBlend mode="normal" in2="BackgroundImageFix" result="effect1_dropShadow_142_1358"/>
<feBlend mode="normal" in="SourceGraphic" in2="effect1_dropShadow_142_1358" result="shape"/>
</filter>
<clipPath id="clip0_142_1358">
<rect width="12.973" height="12.973" fill="white" transform="translate(9.83789 18.8108) rotate(-90)"/>
</clipPath>
</defs>
</svg>
